<svg xmlns="http://www.w3.org/2000/svg" width="1100" height="560" viewBox="0 0 1100 560" role="img">
  <style>
    text {
      font-family: Arial, Helvetica, sans-serif;
      fill: #1f2933;
      font-weight: 700;
    }
    .axis {
      stroke: #1f2933;
      stroke-width: 1.7;
    }
    .grid {
      stroke: #d9e2ec;
      stroke-width: 1;
    }
    .tick {
      font-size: 18px;
      font-weight: 700;
      fill: #334e68;
    }
    .legend {
      font-size: 20px;
      font-weight: 700;
    }
    .axis-label {
      font-size: 22px;
      font-weight: 700;
      fill: #1f2933;
    }
    .line {
      fill: none;
      stroke-width: 3.2;
      stroke-linejoin: round;
      stroke-linecap: round;
    }
    .point {
      stroke: #ffffff;
      stroke-width: 2;
    }
    .value {
      font-size: 16px;
      font-weight: 700;
      paint-order: stroke;
      stroke: #ffffff;
      stroke-width: 4px;
      stroke-linejoin: round;
    }
  </style>

  <rect width="1100" height="560" fill="#ffffff"/>

  <g transform="translate(90 34)">
    <line x1="0" y1="0" x2="34" y2="0" stroke="#0072B2" stroke-width="4" stroke-linecap="round"/>
    <text x="44" y="7" class="legend">Throughput</text>
    <line x1="210" y1="0" x2="244" y2="0" stroke="#009E73" stroke-width="4" stroke-linecap="round"/>
    <text x="254" y="7" class="legend">Root P50</text>
    <line x1="395" y1="0" x2="429" y2="0" stroke="#E69F00" stroke-width="4" stroke-linecap="round"/>
    <text x="439" y="7" class="legend">Root P95</text>
    <line x1="580" y1="0" x2="614" y2="0" stroke="#D55E00" stroke-width="4" stroke-linecap="round"/>
    <text x="624" y="7" class="legend">Root P99</text>
    <line x1="765" y1="0" x2="799" y2="0" stroke="#CC79A7" stroke-width="4" stroke-linecap="round"/>
    <text x="809" y="7" class="legend">Max CPU util</text>
  </g>

  <line x1="90" y1="430" x2="1010" y2="430" class="axis"/>
  <line x1="90" y1="70" x2="90" y2="430" class="axis"/>

  <line x1="90" y1="430" x2="1010" y2="430" class="grid"/>
  <line x1="90" y1="340" x2="1010" y2="340" class="grid"/>
  <line x1="90" y1="250" x2="1010" y2="250" class="grid"/>
  <line x1="90" y1="160" x2="1010" y2="160" class="grid"/>
  <line x1="90" y1="70" x2="1010" y2="70" class="grid"/>

  <text x="66" y="436" text-anchor="end" class="tick">0</text>
  <text x="66" y="346" text-anchor="end" class="tick">4</text>
  <text x="66" y="256" text-anchor="end" class="tick">8</text>
  <text x="66" y="166" text-anchor="end" class="tick">12</text>
  <text x="66" y="76" text-anchor="end" class="tick">16</text>

  <text x="90" y="468" text-anchor="middle" class="tick">S1</text>
  <text x="221.4" y="468" text-anchor="middle" class="tick">S2</text>
  <text x="352.9" y="468" text-anchor="middle" class="tick">S3</text>
  <text x="484.3" y="468" text-anchor="middle" class="tick">S4</text>
  <text x="615.7" y="468" text-anchor="middle" class="tick">S5</text>
  <text x="747.1" y="468" text-anchor="middle" class="tick">S6</text>
  <text x="878.6" y="468" text-anchor="middle" class="tick">S7</text>
  <text x="1010" y="468" text-anchor="middle" class="tick">S8</text>
  <text x="550" y="515" text-anchor="middle" class="axis-label">Scenario</text>
  <text x="26" y="250" text-anchor="middle" transform="rotate(-90 26 250)" class="axis-label">Relative error (%)</text>

  <g id="throughput" fill="#0072B2" stroke="#0072B2">
    <polyline class="line" points="90,414.2 221.4,405.2 352.9,412 484.3,418.8 615.7,412 747.1,412 878.6,409.8 1010,407.5"/>
    <circle class="point" cx="90" cy="414.2" r="4.5"/><text class="value" x="90" y="399" text-anchor="middle">0.7</text>
    <circle class="point" cx="221.4" cy="405.2" r="4.5"/><text class="value" x="221.4" y="390" text-anchor="middle">1.1</text>
    <circle class="point" cx="352.9" cy="412" r="4.5"/><text class="value" x="352.9" y="397" text-anchor="middle">0.8</text>
    <circle class="point" cx="484.3" cy="418.8" r="4.5"/><text class="value" x="484.3" y="404" text-anchor="middle">0.5</text>
    <circle class="point" cx="615.7" cy="412" r="4.5"/><text class="value" x="615.7" y="397" text-anchor="middle">0.8</text>
    <circle class="point" cx="747.1" cy="412" r="4.5"/><text class="value" x="747.1" y="397" text-anchor="middle">0.8</text>
    <circle class="point" cx="878.6" cy="409.8" r="4.5"/><text class="value" x="878.6" y="394" text-anchor="middle">0.9</text>
    <circle class="point" cx="1010" cy="407.5" r="4.5"/><text class="value" x="1010" y="392" text-anchor="middle">1.0</text>
  </g>

  <g id="root-p50" fill="#009E73" stroke="#009E73">
    <polyline class="line" points="90,310.8 221.4,252.2 352.9,292.8 484.3,277 615.7,256.8 747.1,250 878.6,220.7 1010,180.2"/>
    <circle class="point" cx="90" cy="310.8" r="4.5"/><text class="value" x="90" y="294" text-anchor="middle">5.3</text>
    <circle class="point" cx="221.4" cy="252.2" r="4.5"/><text class="value" x="221.4" y="236" text-anchor="middle">7.9</text>
    <circle class="point" cx="352.9" cy="292.8" r="4.5"/><text class="value" x="352.9" y="277" text-anchor="middle">6.1</text>
    <circle class="point" cx="484.3" cy="277" r="4.5"/><text class="value" x="455" y="296" text-anchor="middle">6.8</text>
    <circle class="point" cx="615.7" cy="256.8" r="4.5"/><text class="value" x="615.7" y="241" text-anchor="middle">7.7</text>
    <circle class="point" cx="747.1" cy="250" r="4.5"/><text class="value" x="747.1" y="234" text-anchor="middle">8.0</text>
    <circle class="point" cx="878.6" cy="220.7" r="4.5"/><text class="value" x="878.6" y="205" text-anchor="middle">9.3</text>
    <circle class="point" cx="1010" cy="180.2" r="4.5"/><text class="value" x="1010" y="165" text-anchor="middle">11.1</text>
  </g>

  <g id="root-p95" fill="#E69F00" stroke="#E69F00">
    <polyline class="line" points="90,279.2 221.4,196 352.9,245.5 484.3,238.8 615.7,169 747.1,198.2 878.6,169 1010,110.5"/>
    <circle class="point" cx="90" cy="279.2" r="4.5"/><text class="value" x="90" y="263" text-anchor="middle">6.7</text>
    <circle class="point" cx="221.4" cy="196" r="4.5"/><text class="value" x="221.4" y="180" text-anchor="middle">10.4</text>
    <circle class="point" cx="352.9" cy="245.5" r="4.5"/><text class="value" x="330" y="266" text-anchor="middle">8.2</text>
    <circle class="point" cx="484.3" cy="238.8" r="4.5"/><text class="value" x="522" y="234" text-anchor="middle">8.5</text>
    <circle class="point" cx="615.7" cy="169" r="4.5"/><text class="value" x="588" y="185" text-anchor="middle">11.6</text>
    <circle class="point" cx="747.1" cy="198.2" r="4.5"/><text class="value" x="747.1" y="182" text-anchor="middle">10.3</text>
    <circle class="point" cx="878.6" cy="169" r="4.5"/><text class="value" x="908" y="185" text-anchor="middle">11.6</text>
    <circle class="point" cx="1010" cy="110.5" r="4.5"/><text class="value" x="976" y="91" text-anchor="middle">14.2</text>
  </g>

  <g id="root-p99" fill="#D55E00" stroke="#D55E00">
    <polyline class="line" points="90,218.5 221.4,200.5 352.9,234.3 484.3,220.7 615.7,144.2 747.1,142 878.6,146.5 1010,108.2"/>
    <circle class="point" cx="90" cy="218.5" r="4.5"/><text class="value" x="90" y="203" text-anchor="middle">9.4</text>
    <circle class="point" cx="221.4" cy="200.5" r="4.5"/><text class="value" x="221.4" y="218" text-anchor="middle">10.2</text>
    <circle class="point" cx="352.9" cy="234.3" r="4.5"/><text class="value" x="352.9" y="218" text-anchor="middle">8.7</text>
    <circle class="point" cx="484.3" cy="220.7" r="4.5"/><text class="value" x="484.3" y="205" text-anchor="middle">9.3</text>
    <circle class="point" cx="615.7" cy="144.2" r="4.5"/><text class="value" x="615.7" y="128" text-anchor="middle">12.7</text>
    <circle class="point" cx="747.1" cy="142" r="4.5"/><text class="value" x="747.1" y="126" text-anchor="middle">12.8</text>
    <circle class="point" cx="878.6" cy="146.5" r="4.5"/><text class="value" x="878.6" y="131" text-anchor="middle">12.6</text>
    <circle class="point" cx="1010" cy="108.2" r="4.5"/><text class="value" x="1010" y="126" text-anchor="middle">14.3</text>
  </g>

  <g id="cpu-util" fill="#CC79A7" stroke="#CC79A7">
    <polyline class="line" points="90,319.8 221.4,306.2 352.9,328.8 484.3,295 615.7,279.2 747.1,288.2 878.6,290.5 1010,277"/>
    <circle class="point" cx="90" cy="319.8" r="4.5"/><text class="value" x="90" y="340" text-anchor="middle">4.9</text>
    <circle class="point" cx="221.4" cy="306.2" r="4.5"/><text class="value" x="221.4" y="326" text-anchor="middle">5.5</text>
    <circle class="point" cx="352.9" cy="328.8" r="4.5"/><text class="value" x="352.9" y="349" text-anchor="middle">4.5</text>
    <circle class="point" cx="484.3" cy="295" r="4.5"/><text class="value" x="484.3" y="315" text-anchor="middle">6.0</text>
    <circle class="point" cx="615.7" cy="279.2" r="4.5"/><text class="value" x="615.7" y="299" text-anchor="middle">6.7</text>
    <circle class="point" cx="747.1" cy="288.2" r="4.5"/><text class="value" x="747.1" y="308" text-anchor="middle">6.3</text>
    <circle class="point" cx="878.6" cy="290.5" r="4.5"/><text class="value" x="878.6" y="311" text-anchor="middle">6.2</text>
    <circle class="point" cx="1010" cy="277" r="4.5"/><text class="value" x="1010" y="297" text-anchor="middle">6.8</text>
  </g>
</svg>
